# xmcd CD database file
#
# Track frame offsets:
#	150
#	14762
#	38342
#	55980
#	76477
#	97050
#	114847
#	132345
#	147987
#	162987
#
# Disc length: 2319 seconds
#
# Revision: 2
# Processed by: cddbd v1.5.2PL0 Copyright (c) Steve Scherf et al.
# Submitted via: CDex 1.70beta2
#
DISCID=82090d0a
DTITLE=布谷文夫 - 悲しき夏バテ
DYEAR=1973
DGENRE=R&B
TTITLE0=五番街
TTITLE1=冷たい女
TTITLE2=深南部牛追唄
TTITLE3=夏バテ
TTITLE4=颱風13号
TTITLE5=ニューオリンズの町へ
TTITLE6=ホーボー・ブルース
TTITLE7=街のブルース
TTITLE8=朝めがさめて
TTITLE9=水たまり
EXTD=YEAR: 1973
EXTT0=
EXTT1=
EXTT2=
EXTT3=
EXTT4=
EXTT5=
EXTT6=
EXTT7=
EXTT8=
EXTT9=
PLAYORDER=
